<?xml version="1.0" standalone="no"?>
<!DOCTYPE svg PUBLIC "-//W3C//DTD SVG 20010904//EN"
 "http://www.w3.org/TR/2001/REC-SVG-20010904/DTD/svg10.dtd">
<svg version="1.0" xmlns="http://www.w3.org/2000/svg"
 width="636.000000pt" height="636.000000pt" viewBox="0 0 636.000000 636.000000"
 preserveAspectRatio="xMidYMid meet">
<metadata>
Created by potrace 1.11, written by Peter Selinger 2001-2013
</metadata>
<g transform="translate(0.000000,636.000000) scale(0.100000,-0.100000)"
fill="#000000" stroke="none">
<path d="M1720 6323 c-95 -8 -273 -44 -372 -77 -596 -195 -973 -679 -887
-1141 l11 -58 -90 -83 c-352 -326 -438 -730 -231 -1081 43 -73 175 -207 258
-263 123 -82 295 -150 471 -186 60 -13 135 -18 253 -18 163 -1 168 -2 162 -21
-3 -11 -8 -37 -11 -58 -5 -27 -12 -38 -28 -41 -11 -3 -61 -12 -111 -21 -170
-31 -410 -124 -549 -213 -145 -93 -296 -234 -376 -353 -58 -85 -124 -229 -145
-317 -23 -97 -23 -248 0 -343 34 -141 121 -287 229 -387 l47 -43 -47 -52
c-115 -128 -194 -265 -236 -413 -30 -106 -32 -298 -4 -394 100 -341 431 -591
867 -656 151 -22 410 -15 551 15 232 50 471 154 635 277 l42 31 78 -77 c149
-146 327 -236 581 -293 82 -18 128 -21 302 -21 174 0 221 4 309 23 203 43 421
130 565 224 l69 45 71 -46 c141 -91 328 -157 523 -183 125 -17 413 -6 523 20
319 73 566 199 762 389 154 150 255 315 299 492 30 121 24 291 -15 405 -37
110 -96 205 -181 293 l-71 75 66 66 c251 252 351 564 270 846 -55 193 -195
372 -376 478 l-71 42 87 85 c210 207 309 421 310 666 0 271 -136 501 -399 674
-23 16 -23 16 53 74 198 152 341 355 398 565 28 104 30 289 3 381 -65 228
-217 405 -453 528 -279 145 -623 187 -972 116 -264 -54 -550 -193 -722 -353
l-59 -54 -202 -2 c-166 -1 -221 -6 -306 -24 -208 -44 -399 -119 -555 -215 -40
-25 -75 -46 -78 -46 -3 0 -10 25 -17 56 -7 31 -34 98 -60 148 -37 74 -64 109
-141 187 -52 53 -122 113 -155 134 -242 154 -552 224 -875 198z m937 -1969
l43 -59 -77 -5 c-43 -3 -79 -2 -81 2 -2 4 1 24 7 45 6 21 11 54 11 73 0 19 3
45 6 58 6 21 8 20 27 -16 11 -22 39 -66 64 -98z m1098 -460 c-10 -67 -14 -74
-44 -74 -17 1 -33 10 -45 28 -11 15 -31 42 -44 60 l-24 32 82 0 82 0 -7 -46z"/>
</g>
</svg>
